PathFileType	4	(X/Y/Z)	c:/Users/goper/Files/vsCode/490R/osim_files/A01/A01_Slow_04.trc
DataRate	CameraRate	NumFrames	NumMarkers	Units                	OrigDataRate	OrigDataStartFrame	OrigNumFrames
120.00	120.00	5	36	mm	120.0	831	1661
                Frame#	Time	Mobility_markerset:LPSIS			Mobility_markerset:LASIS			Mobility_markerset:LTH1			Mobility_markerset:LTH2			Mobility_markerset:LTH3			Mobility_markerset:LTH4			Mobility_markerset:LLFE			Mobility_markerset:LMFE			Mobility_markerset:LSH1			Mobility_markerset:LSH2			Mobility_markerset:LSH3			Mobility_markerset:LSH4			Mobility_markerset:LLMAL			Mobility_markerset:LMMAL			Mobility_markerset:LCAL			Mobility_markerset:LMTP5			Mobility_markerset:LTOE			Mobility_markerset:LMTP1			Mobility_markerset:RPSIS			Mobility_markerset:RASIS			Mobility_markerset:RTH1			Mobility_markerset:RTH2			Mobility_markerset:RTH3			Mobility_markerset:RTH4			Mobility_markerset:RLFE			Mobility_markerset:RMFE			Mobility_markerset:RSH1			Mobility_markerset:RSH2			Mobility_markerset:RSH3			Mobility_markerset:RSH4			Mobility_markerset:RLMAL			Mobility_markerset:RMMAL			Mobility_markerset:RCAL			Mobility_markerset:RMTP1			Mobility_markerset:RTOE			Mobility_markerset:RMTP5		
		X1	Y1	Z1	X2	Y2	Z2	X3	Y3	Z3	X4	Y4	Z4	X5	Y5	Z5	X6	Y6	Z6	X7	Y7	Z7	X8	Y8	Z8	X9	Y9	Z9	X10	Y10	Z10	X11	Y11	Z11	X12	Y12	Z12	X13	Y13	Z13	X14	Y14	Z14	X15	Y15	Z15	X16	Y16	Z16	X17	Y17	Z17	X18	Y18	Z18	X19	Y19	Z19	X20	Y20	Z20	X21	Y21	Z21	X22	Y22	Z22	X23	Y23	Z23	X24	Y24	Z24	X25	Y25	Z25	X26	Y26	Z26	X27	Y27	Z27	X28	Y28	Z28	X29	Y29	Z29	X30	Y30	Z30	X31	Y31	Z31	X32	Y32	Z32	X33	Y33	Z33	X34	Y34	Z34	X35	Y35	Z35	X36	Y36	Z36

831	6.91667	-1350.29944	1059.06885	342.49326	-1589.00854	1022.27716	437.08667	-1463.69165	698.72241	478.78937	-1471.14490	652.38379	468.69592	-1524.79407	702.78479	479.97739	-1523.19763	658.14746	466.24835	-1503.65527	537.76556	429.28082	-1515.26013	547.93683	291.97198	-1440.43762	382.53183	413.51450	-1432.89392	335.13745	414.64032	-1500.93188	367.53458	408.41095	-1484.31177	324.49106	408.32498	-1406.68994	93.09368	384.22620	-1392.06360	93.27709	302.57919	-1322.75049	67.97387	348.48822	-1545.97546	36.94515	390.52289	-1569.03149	58.59578	322.83237	-1540.11633	48.49673	289.95132	-1353.86719	1048.76440	240.61121	-1584.88403	1003.78839	178.00967	-1577.13989	677.43610	96.47784	-1603.53931	643.07349	103.48193	-1630.61658	709.54095	97.68408	-1648.01501	670.57825	102.54713	-1691.21838	529.97125	146.98103	-1706.75281	550.53894	264.35031	-1560.21509	351.76996	151.11491	-1553.03174	307.54907	152.19708	-1619.26086	335.81198	143.34027	-1604.14062	292.31427	145.97176	-1538.31958	127.24623	185.03491	-1576.39990	143.12251	265.91711	-1488.43628	110.13812	243.06117	-1691.61292	58.36848	253.50391	-1720.10657	70.18500	202.45810	-1654.95996	46.53944	148.11951
832	6.92500	-1357.71948	1059.35266	341.07788	-1595.80481	1021.52832	437.37164	-1468.34473	698.69122	478.41467	-1475.52710	652.47870	468.39362	-1529.08301	702.40979	479.88983	-1527.65320	657.73175	466.10324	-1507.37671	537.39978	429.20264	-1518.43359	547.68280	290.96704	-1442.97583	382.71130	413.43842	-1435.06287	335.33817	414.60849	-1503.28284	367.28500	408.27481	-1486.33813	324.26547	408.19806	-1406.97180	93.44709	384.17914	-1392.10059	93.74242	302.13065	-1323.03760	68.68889	348.32733	-1546.06824	36.87772	390.54987	-1569.12256	58.45774	322.83435	-1540.56152	48.67591	289.77347	-1362.10229	1048.69153	239.30254	-1593.80237	1003.57629	178.31870	-1585.97363	677.14233	97.04665	-1612.33496	642.60632	104.56006	-1639.49072	709.07361	99.07137	-1656.82178	670.15253	104.32379	-1699.43726	529.85535	148.46518	-1712.74084	549.98224	265.96637	-1577.92798	345.25339	150.60524	-1573.36218	300.62579	151.46893	-1637.71692	332.64948	142.91837	-1624.64795	288.05249	145.23247	-1568.33740	119.90807	183.20677	-1605.58618	137.19008	264.13126	-1519.40759	100.20975	241.10562	-1725.01660	58.44284	251.13382	-1753.44214	72.22423	199.82722	-1688.83850	45.36388	145.77470
833	6.93333	-1365.26392	1059.52686	339.53214	-1602.72693	1020.74896	437.68469	-1472.96155	698.75104	478.08731	-1479.93604	652.34344	468.07166	-1533.80127	701.92377	479.77274	-1532.07910	657.31158	465.96573	-1511.13220	536.95636	429.16550	-1522.18005	547.34546	291.02350	-1445.43860	382.77478	413.31830	-1436.91052	335.72397	414.16678	-1505.51135	366.89911	408.30396	-1488.57520	324.06705	408.18237	-1407.27002	93.75964	384.16638	-1392.64148	94.11040	302.06946	-1323.29785	69.32792	348.18634	-1546.14917	36.79839	390.56583	-1569.29382	58.34891	322.87704	-1540.66638	48.65715	289.69788	-1370.47729	1048.39539	237.88084	-1602.65552	1002.97559	178.45839	-1594.41394	676.44104	97.77344	-1620.58716	641.84271	105.56903	-1648.01318	708.19916	100.49063	-1665.01953	669.18921	105.90015	-1707.24023	529.22626	149.73660	-1718.10327	548.64240	267.72351	-1595.62512	339.11630	149.86630	-1593.61890	294.36179	150.42592	-1656.13477	329.96918	142.55942	-1646.56494	286.19150	144.15738	-1598.31323	113.72668	181.19530	-1634.80298	132.21912	262.28888	-1550.79089	91.49877	239.12794	-1757.81018	59.28131	248.88181	-1785.64441	74.43536	197.97455	-1723.14746	44.62462	143.99576
834	6.94167	-1373.01343	1059.63855	337.94357	-1609.64331	1019.84174	438.03589	-1477.74573	698.65369	477.77878	-1484.40186	652.26257	467.81369	-1538.60767	701.45233	479.56094	-1536.66589	656.80701	465.89600	-1514.94275	536.49469	429.23138	-1526.58948	546.57166	291.14697	-1448.04419	382.88702	413.29962	-1439.13513	335.84357	414.12634	-1507.94983	366.49237	408.25473	-1490.73621	323.78519	408.16202	-1407.65088	94.01400	384.16202	-1392.99414	94.41763	301.86624	-1323.58521	69.85789	348.16003	-1546.24866	36.69334	390.63794	-1569.23621	58.15526	322.74011	-1540.71252	48.63544	289.65970	-1378.83191	1048.59241	236.46696	-1611.56982	1002.12427	178.61366	-1602.66833	675.33875	98.72486	-1628.26160	640.71381	106.58765	-1656.17126	706.90509	101.64450	-1672.96851	667.81500	107.39767	-1714.78027	528.19794	150.75139	-1723.25964	546.86670	269.64066	-1613.27051	333.40576	148.94203	-1613.79150	288.33273	149.27847	-1674.33899	327.80264	142.08199	-1666.70129	283.39954	142.80902	-1628.72839	108.33326	179.48976	-1663.80774	128.38017	260.57306	-1581.69153	83.99490	236.95645	-1790.15833	61.64351	247.18257	-1817.65015	78.09613	196.33459	-1756.35449	45.57655	142.10112
835	6.95000	-1380.94214	1059.54895	336.28470	-1616.54041	1018.76202	438.43280	-1482.48083	698.57318	477.45648	-1488.88257	652.09045	467.63690	-1543.46216	700.84387	479.30075	-1541.12476	656.16785	465.87277	-1518.57812	535.90631	429.26871	-1530.25806	546.10181	291.23639	-1450.52930	382.81781	413.27274	-1441.27478	335.87653	414.09784	-1510.28333	365.94550	408.48773	-1492.75122	323.30734	408.30115	-1407.99622	94.18403	384.17786	-1393.32092	94.67451	301.65790	-1323.78943	70.33401	348.09598	-1546.32812	36.58551	390.71008	-1569.32739	57.95858	322.70493	-1540.77966	48.55587	289.66315	-1387.11292	1048.69238	234.49210	-1620.55334	1001.01562	178.74623	-1610.09705	674.03296	99.40786	-1635.57642	639.13501	107.51187	-1663.82874	705.16693	102.89354	-1680.31445	665.96594	108.61631	-1722.37988	526.94763	151.70363	-1727.99744	544.48578	271.42889	-1630.82422	328.32397	147.82803	-1634.12634	283.26727	148.16219	-1692.19861	326.12433	141.49765	-1687.01990	281.42035	141.83499	-1658.49475	104.26742	177.77789	-1692.21204	125.84912	258.97122	-1612.66968	77.35849	235.10597	-1821.98792	65.48703	245.89066	-1848.56958	83.23411	194.98741	-1789.21814	47.95964	140.50540
